<svg xmlns="http://www.w3.org/2000/svg" viewBox="0 0 24 24" fill="none" stroke="currentColor" stroke-width="1.5" stroke-linecap="round" stroke-linejoin="round">
  <path d="M9.5 4.5c-2.5 0-4.5 2-4.5 4.5 0 1.5.5 2.5 1.5 3.5-1 1-1.5 2-1.5 3.5 0 2.5 2 4.5 4.5 4.5"/>
  <path d="M14.5 4.5c2.5 0 4.5 2 4.5 4.5 0 1.5-.5 2.5-1.5 3.5 1 1 1.5 2 1.5 3.5 0 2.5-2 4.5-4.5 4.5"/>
  <path d="M12 4v16"/>
  <path d="M9 8h3"/>
  <path d="M12 8h3"/>
  <path d="M9 16h3"/>
  <path d="M12 16h3"/>
  <circle cx="12" cy="12" r="1.5"/>
</svg>