<svg xmlns="http://www.w3.org/2000/svg" style="display: none;">
  <defs>
    <!-- 1. Brain / Metacognition -->
    <symbol id="icon-brain" viewBox="0 0 24 24" fill="none" stroke="currentColor" stroke-width="1.5" stroke-linecap="round" stroke-linejoin="round">
      <path d="M9.5 4.5c-2.5 0-4.5 2-4.5 4.5 0 1.5.5 2.5 1.5 3.5-1 1-1.5 2-1.5 3.5 0 2.5 2 4.5 4.5 4.5"/>
      <path d="M14.5 4.5c2.5 0 4.5 2 4.5 4.5 0 1.5-.5 2.5-1.5 3.5 1 1 1.5 2 1.5 3.5 0 2.5-2 4.5-4.5 4.5"/>
      <path d="M12 4v16"/>
      <path d="M9 8h3"/>
      <path d="M12 8h3"/>
      <path d="M9 16h3"/>
      <path d="M12 16h3"/>
      <circle cx="12" cy="12" r="1.5"/>
    </symbol>

    <!-- 2. Microphone / Voice -->
    <symbol id="icon-microphone" viewBox="0 0 24 24" fill="none" stroke="currentColor" stroke-width="1.5" stroke-linecap="round" stroke-linejoin="round">
      <rect x="9" y="3" width="6" height="11" rx="3"/>
      <path d="M19 10v2a7 7 0 0 1-14 0v-2"/>
      <path d="M12 19v3"/>
      <path d="M8 22h8"/>
    </symbol>

    <!-- 3. Lightning / Automation -->
    <symbol id="icon-lightning" viewBox="0 0 24 24" fill="none" stroke="currentColor" stroke-width="1.5" stroke-linecap="round" stroke-linejoin="round">
      <path d="M13 2L4 14h7l-2 8 9-12h-7l2-8z"/>
    </symbol>

    <!-- 4. Code / Development -->
    <symbol id="icon-code" viewBox="0 0 24 24" fill="none" stroke="currentColor" stroke-width="1.5" stroke-linecap="round" stroke-linejoin="round">
      <polyline points="16 18 22 12 16 6"/>
      <polyline points="8 6 2 12 8 18"/>
    </symbol>

    <!-- 5. Document / Files -->
    <symbol id="icon-document" viewBox="0 0 24 24" fill="none" stroke="currentColor" stroke-width="1.5" stroke-linecap="round" stroke-linejoin="round">
      <path d="M14 2H6a2 2 0 0 0-2 2v16a2 2 0 0 0 2 2h12a2 2 0 0 0 2-2V8z"/>
      <polyline points="14 2 14 8 20 8"/>
      <line x1="8" y1="13" x2="16" y2="13"/>
      <line x1="8" y1="17" x2="16" y2="17"/>
    </symbol>

    <!-- 6. Book / Ebook -->
    <symbol id="icon-book" viewBox="0 0 24 24" fill="none" stroke="currentColor" stroke-width="1.5" stroke-linecap="round" stroke-linejoin="round">
      <path d="M4 19.5A2.5 2.5 0 0 1 6.5 17H20"/>
      <path d="M6.5 2H20v20H6.5A2.5 2.5 0 0 1 4 19.5v-15A2.5 2.5 0 0 1 6.5 2z"/>
      <line x1="8" y1="7" x2="16" y2="7"/>
      <line x1="8" y1="11" x2="14" y2="11"/>
    </symbol>

    <!-- 7. Video / Play -->
    <symbol id="icon-video" viewBox="0 0 24 24" fill="none" stroke="currentColor" stroke-width="1.5" stroke-linecap="round" stroke-linejoin="round">
      <rect x="2" y="6" width="20" height="12" rx="2"/>
      <polygon points="10 9 15 12 10 15 10 9"/>
    </symbol>

    <!-- 8. Image / Photo -->
    <symbol id="icon-image" viewBox="0 0 24 24" fill="none" stroke="currentColor" stroke-width="1.5" stroke-linecap="round" stroke-linejoin="round">
      <rect x="3" y="3" width="18" height="18" rx="2"/>
      <circle cx="8.5" cy="8.5" r="1.5"/>
      <path d="M21 15l-5-5L5 21"/>
    </symbol>

    <!-- 9. Terminal / Command -->
    <symbol id="icon-terminal" viewBox="0 0 24 24" fill="none" stroke="currentColor" stroke-width="1.5" stroke-linecap="round" stroke-linejoin="round">
      <rect x="2" y="4" width="20" height="16" rx="2"/>
      <path d="M6 8l4 4-4 4"/>
      <line x1="12" y1="16" x2="18" y2="16"/>
    </symbol>

    <!-- 10. Shield / Security -->
    <symbol id="icon-shield" viewBox="0 0 24 24" fill="none" stroke="currentColor" stroke-width="1.5" stroke-linecap="round" stroke-linejoin="round">
      <path d="M12 22s8-4 8-10V5l-8-3-8 3v7c0 6 8 10 8 10z"/>
      <path d="M9 12l2 2 4-4"/>
    </symbol>

    <!-- 11. Chat / Message -->
    <symbol id="icon-chat" viewBox="0 0 24 24" fill="none" stroke="currentColor" stroke-width="1.5" stroke-linecap="round" stroke-linejoin="round">
      <path d="M21 11.5a8.38 8.38 0 0 1-.9 3.8 8.5 8.5 0 0 1-7.6 4.7 8.38 8.38 0 0 1-3.8-.9L3 21l1.9-5.7a8.38 8.38 0 0 1-.9-3.8 8.5 8.5 0 0 1 4.7-7.6 8.38 8.38 0 0 1 3.8-.9h.5a8.48 8.48 0 0 1 8 8v.5z"/>
      <line x1="9" y1="12" x2="15" y2="12"/>
    </symbol>

    <!-- 12. Tools / Skills -->
    <symbol id="icon-tools" viewBox="0 0 24 24" fill="none" stroke="currentColor" stroke-width="1.5" stroke-linecap="round" stroke-linejoin="round">
      <path d="M14.7 6.3a1 1 0 0 0 0 1.4l1.6 1.6a1 1 0 0 0 1.4 0l3.77-3.77a6 6 0 0 1-7.94 7.94l-6.91 6.91a2.12 2.12 0 0 1-3-3l6.91-6.91a6 6 0 0 1 7.94-7.94l-3.76 3.76z"/>
    </symbol>
  </defs>
</svg>